<svg xmlns="http://www.w3.org/2000/svg" viewBox="0 0 24.61 35"><defs><style>.cls-1{fill:#fd003a;}.cls-2{fill:#e50027;}</style></defs><title>map-pin</title><g id="Слой_2" data-name="Слой 2"><g id="Capa_1" data-name="Capa 1"><path class="cls-1" d="M12.3,0A12.32,12.32,0,0,0,0,12.3a12.11,12.11,0,0,0,1.85,6.46l9.62,15.76a1,1,0,0,0,.7.47,1,1,0,0,0,1-.49l9.66-15.9A12.29,12.29,0,0,0,12.3,0Zm0,18.46a6.16,6.16,0,1,1,6.16-6.16A6.15,6.15,0,0,1,12.3,18.46Z"/><path class="cls-2" d="M12.3,0V6.15a6.16,6.16,0,1,1,0,12.31V35a1,1,0,0,0,.91-.5l9.66-15.9A12.29,12.29,0,0,0,12.3,0Z"/></g></g></svg>