<svg id="coins" xmlns="http://www.w3.org/2000/svg" xmlns:xlink="http://www.w3.org/1999/xlink" viewBox="0 0 771.2 291.38"><defs><style>.cls-1,.cls-16,.cls-8,.cls-9{stroke-miterlimit:10;}.cls-1{fill:url(#linear-gradient);stroke:url(#linear-gradient-2);}.cls-2{fill:url(#linear-gradient-3);}.cls-3{fill:url(#linear-gradient-4);}.cls-4{fill:url(#linear-gradient-5);}.cls-5{fill:url(#linear-gradient-6);}.cls-6{fill:url(#linear-gradient-7);}.cls-7{fill:url(#linear-gradient-8);}.cls-16,.cls-8{stroke-width:3px;}.cls-8{fill:url(#linear-gradient-9);stroke:url(#linear-gradient-10);}.cls-9{fill:url(#linear-gradient-11);stroke:url(#linear-gradient-12);}.cls-10{fill:url(#linear-gradient-13);}.cls-11{fill:url(#linear-gradient-14);}.cls-12{fill:url(#linear-gradient-15);}.cls-13{fill:url(#linear-gradient-16);}.cls-14{fill:url(#linear-gradient-17);}.cls-15{fill:url(#linear-gradient-18);}.cls-16{fill:url(#linear-gradient-19);stroke:url(#linear-gradient-20);}.cls-17{fill:url(#linear-gradient-21);}.cls-18{fill:url(#linear-gradient-22);}.cls-19{fill:url(#linear-gradient-23);}.cls-20{fill:url(#linear-gradient-24);}.cls-21{fill:url(#linear-gradient-25);}.cls-22{fill:url(#linear-gradient-26);}.cls-23{fill:url(#linear-gradient-27);}.cls-24{fill:url(#linear-gradient-28);}.cls-25{fill:url(#linear-gradient-29);}.cls-26{fill:url(#linear-gradient-30);}.cls-27{fill:url(#linear-gradient-31);}.cls-28{fill:url(#linear-gradient-32);}</style><linearGradient id="linear-gradient" x1="637.58" y1="221.21" x2="690.96" y2="221.21" gradientUnits="userSpaceOnUse"><stop offset="0.12" stop-color="#c59f48"/><stop offset="0.28" stop-color="#fef698"/><stop offset="0.47" stop-color="#fdf597"/><stop offset="0.64" stop-color="#e9d06b"/><stop offset="0.8" stop-color="#ac8026"/><stop offset="0.95" stop-color="#7b4d11"/></linearGradient><linearGradient id="linear-gradient-2" x1="636.87" y1="220.34" x2="692.84" y2="220.34" gradientUnits="userSpaceOnUse"><stop offset="0" stop-color="#a87b2f"/><stop offset="0.18" stop-color="#faf298"/><stop offset="0.36" stop-color="#a4762c"/><stop offset="0.57" stop-color="#d5b85d"/><stop offset="0.68" stop-color="#b78e3b"/><stop offset="0.86" stop-color="#cfb15c"/><stop offset="0.99" stop-color="#b1842e"/></linearGradient><linearGradient id="linear-gradient-3" x1="656.33" y1="105.63" x2="757.95" y2="105.63" xlink:href="#linear-gradient"/><linearGradient id="linear-gradient-4" x1="708.55" y1="68.9" x2="708.55" y2="140.2" gradientUnits="userSpaceOnUse"><stop offset="0" stop-color="#cbab55"/><stop offset="0.18" stop-color="#78470b"/><stop offset="0.36" stop-color="#9c6b20"/><stop offset="0.57" stop-color="#f7eeaa"/><stop offset="0.68" stop-color="#d8be7e"/><stop offset="0.86" stop-color="#cfb78d"/><stop offset="0.99" stop-color="#9f6d1d"/></linearGradient><linearGradient id="linear-gradient-5" x1="641.14" y1="189.87" x2="716.7" y2="189.87" xlink:href="#linear-gradient"/><linearGradient id="linear-gradient-6" x1="679.44" y1="165.93" x2="679.44" y2="213.02" xlink:href="#linear-gradient-2"/><linearGradient id="linear-gradient-7" x1="650.8" y1="148.3" x2="740.29" y2="148.3" xlink:href="#linear-gradient"/><linearGradient id="linear-gradient-8" x1="696.88" y1="114.66" x2="696.88" y2="178.86" xlink:href="#linear-gradient-2"/><linearGradient id="linear-gradient-9" x1="633.31" y1="129.35" x2="771.84" y2="129.35" xlink:href="#linear-gradient"/><linearGradient id="linear-gradient-10" x1="631.81" y1="127.72" x2="774.67" y2="127.72" xlink:href="#linear-gradient-4"/><linearGradient id="linear-gradient-11" x1="1264.58" y1="221.21" x2="1317.96" y2="221.21" gradientTransform="matrix(-1, 0, 0, 1, 1405.14, 0)" xlink:href="#linear-gradient"/><linearGradient id="linear-gradient-12" x1="1263.87" y1="220.34" x2="1319.84" y2="220.34" gradientTransform="matrix(-1, 0, 0, 1, 1405.14, 0)" xlink:href="#linear-gradient-2"/><linearGradient id="linear-gradient-13" x1="1283.33" y1="105.63" x2="1384.95" y2="105.63" gradientTransform="matrix(-1, 0, 0, 1, 1405.14, 0)" xlink:href="#linear-gradient"/><linearGradient id="linear-gradient-14" x1="69.6" y1="68.9" x2="69.6" y2="140.2" xlink:href="#linear-gradient-4"/><linearGradient id="linear-gradient-15" x1="1268.14" y1="189.87" x2="1343.7" y2="189.87" gradientTransform="matrix(-1, 0, 0, 1, 1405.14, 0)" xlink:href="#linear-gradient"/><linearGradient id="linear-gradient-16" x1="98.7" y1="165.93" x2="98.7" y2="213.02" xlink:href="#linear-gradient-2"/><linearGradient id="linear-gradient-17" x1="1277.8" y1="148.3" x2="1367.29" y2="148.3" gradientTransform="matrix(-1, 0, 0, 1, 1405.14, 0)" xlink:href="#linear-gradient"/><linearGradient id="linear-gradient-18" x1="81.27" y1="114.66" x2="81.27" y2="178.86" xlink:href="#linear-gradient-2"/><linearGradient id="linear-gradient-19" x1="1260.31" y1="129.35" x2="1398.84" y2="129.35" gradientTransform="matrix(-1, 0, 0, 1, 1405.14, 0)" xlink:href="#linear-gradient"/><linearGradient id="linear-gradient-20" x1="1258.81" y1="127.72" x2="1401.67" y2="127.72" gradientTransform="matrix(-1, 0, 0, 1, 1405.14, 0)" xlink:href="#linear-gradient-4"/><linearGradient id="linear-gradient-21" x1="385.5" y1="288.83" x2="385.5" y2="159.8" gradientUnits="userSpaceOnUse"><stop offset="0" stop-color="#bd9339"/><stop offset="0.05" stop-color="#b18330"/><stop offset="0.12" stop-color="#91631e"/><stop offset="0.19" stop-color="#95713f"/><stop offset="0.27" stop-color="#7f5217"/><stop offset="0.36" stop-color="#7d5115"/><stop offset="0.44" stop-color="#7d5117"/><stop offset="0.53" stop-color="#7d5117"/><stop offset="0.6" stop-color="#7c5014"/><stop offset="0.68" stop-color="#7d5117"/><stop offset="0.75" stop-color="#7d5117"/><stop offset="0.84" stop-color="#7c5014"/><stop offset="0.95" stop-color="#b18331"/></linearGradient><linearGradient id="linear-gradient-22" x1="385.5" y1="280.37" x2="385.5" y2="-0.92" gradientUnits="userSpaceOnUse"><stop offset="0" stop-color="#cda342"/><stop offset="0.05" stop-color="#b78c33"/><stop offset="0.12" stop-color="#c69f45"/><stop offset="0.19" stop-color="#c29b45"/><stop offset="0.27" stop-color="#c59f48"/><stop offset="0.36" stop-color="#d1b25c"/><stop offset="0.44" stop-color="#e2cd78"/><stop offset="0.52" stop-color="#ead785"/><stop offset="0.6" stop-color="#ecda88"/><stop offset="0.68" stop-color="#f2e28e"/><stop offset="0.75" stop-color="#f5e68e"/><stop offset="0.84" stop-color="#e7d47d"/><stop offset="0.95" stop-color="#a2782c"/></linearGradient><linearGradient id="linear-gradient-23" x1="385.5" y1="268.66" x2="385.5" y2="11.75" gradientUnits="userSpaceOnUse"><stop offset="0.11" stop-color="#330505"/><stop offset="0.48" stop-color="#540202"/><stop offset="0.78" stop-color="#5e0101"/><stop offset="1" stop-color="#670000"/></linearGradient><linearGradient id="linear-gradient-24" x1="263.54" y1="144.72" x2="263.54" y2="66.21" gradientUnits="userSpaceOnUse"><stop offset="0" stop-color="#5b290d"/><stop offset="0.14" stop-color="#845216"/><stop offset="0.24" stop-color="#9c6a1f"/><stop offset="0.34" stop-color="#b6862d"/><stop offset="0.44" stop-color="#cfa94a"/><stop offset="0.54" stop-color="#f4e68a"/><stop offset="0.65" stop-color="#fdf49b"/><stop offset="0.76" stop-color="#e7d278"/><stop offset="0.85" stop-color="#cba442"/><stop offset="0.94" stop-color="#b38332"/></linearGradient><linearGradient id="linear-gradient-25" x1="338.16" y1="144.72" x2="338.16" y2="66.21" xlink:href="#linear-gradient-24"/><linearGradient id="linear-gradient-26" x1="406.39" y1="146.18" x2="406.39" y2="64.76" xlink:href="#linear-gradient-24"/><linearGradient id="linear-gradient-27" x1="502.4" y1="144.72" x2="502.4" y2="66.21" xlink:href="#linear-gradient-24"/><linearGradient id="linear-gradient-28" x1="243.27" y1="240.83" x2="243.27" y2="160.84" xlink:href="#linear-gradient-24"/><linearGradient id="linear-gradient-29" x1="310.55" y1="241.15" x2="310.55" y2="161.68" xlink:href="#linear-gradient-24"/><linearGradient id="linear-gradient-30" x1="370.44" y1="240.83" x2="370.44" y2="161.68" xlink:href="#linear-gradient-24"/><linearGradient id="linear-gradient-31" x1="438.24" y1="241.15" x2="438.24" y2="160.84" xlink:href="#linear-gradient-24"/><linearGradient id="linear-gradient-32" x1="519.28" y1="240.83" x2="519.28" y2="161.68" xlink:href="#linear-gradient-24"/></defs><title>Logo_small_wings</title><path class="cls-1" d="M646.25,215.69s26.75-1.43,34.31-4.28c0,0,7.06-1.78,10.4-4.63,0,0-5.94,10.33-13.75,16.93,0,0-14.49,11-26.26,11.23l-11.89.71h-1.48s6.44-18.18,6.93-20.14Z" transform="translate(-3.47 -6.56)"/><path class="cls-2" d="M656.33,138.42S692.75,133.67,708,128c0,0,23.24-7.6,32.6-22.33,0,0,13.18-19,17.34-32.79,0,0-15.6,11.88-24.28,15.68,0,0-32.25,13.78-55.14,13.31l-20.46-1.9Z" transform="translate(-3.47 -6.56)"/><path class="cls-3" d="M656.33,138.42c10.7-1.78,21.4-3.63,32-6,5.28-1.2,10.55-2.42,15.67-4.05a89.7,89.7,0,0,0,14.82-6.23A69.58,69.58,0,0,0,732,113.25a43.07,43.07,0,0,0,5.5-5.64c1.53-2.09,3.06-4.35,4.49-6.62,2.88-4.55,5.63-9.2,8.15-13.94a87.7,87.7,0,0,0,6.35-14.64L758.85,74A208.68,208.68,0,0,1,741,86.26c-1.55.95-3.15,1.83-4.79,2.67-.83.4-1.68.83-2.54,1.17l-2.52,1c-3.36,1.31-6.75,2.55-10.17,3.68a192.15,192.15,0,0,1-20.86,5.76,95.92,95.92,0,0,1-21.6,2.31h-.08L658,100.71l.87-.75c-.36,6.31-.84,12.64-1.26,19.05Zm0,0,.46-19.08c.16-6.43.27-12.93.49-19.45l0-.82.84.07,20.48,1.65h-.07a97.22,97.22,0,0,0,21-2.74,188.81,188.81,0,0,0,20.5-5.94c3.36-1.17,6.71-2.39,10-3.7l2.47-1c.8-.32,1.55-.71,2.33-1.09,1.55-.8,3.09-1.65,4.59-2.58,6-3.68,11.88-7.85,17.58-12.08l3.71-2.76-1.39,4.37a89.83,89.83,0,0,1-6.63,15.14c-2.57,4.84-5.4,9.51-8.39,14.08-1.49,2.29-3,4.52-4.73,6.79a46.56,46.56,0,0,1-5.91,5.92,69.58,69.58,0,0,1-13.92,8.88,91.93,91.93,0,0,1-15.29,6c-5.27,1.52-10.58,2.68-15.93,3.67Q672.52,136.67,656.33,138.42Z" transform="translate(-3.47 -6.56)"/><path class="cls-4" d="M642.13,212.36s28.44,1.91,44.91-7.6c0,0,10.54-4.75,19.32-19.25a118.65,118.65,0,0,0,10.34-18.29s-18,11.4-31.22,11.16l-23.76-1.66-12.19,1.17-8.39,33.46Z" transform="translate(-3.47 -6.56)"/><path class="cls-5" d="M642.13,212.36c3.84.18,7.68.11,11.51-.07s7.66-.54,11.45-1.11a90.92,90.92,0,0,0,11.22-2.37,51.55,51.55,0,0,0,10.55-4.36l0,0a41.06,41.06,0,0,0,9.61-7.16,59.39,59.39,0,0,0,7.72-9.25l1.63-2.56,1.69-2.53q1.65-2.53,3.18-5.15A99.27,99.27,0,0,0,716.25,167l.71.61a98.55,98.55,0,0,1-12.79,6.61,60,60,0,0,1-13.79,4.22,28.75,28.75,0,0,1-7.23.21l-7.15-.52-14.3-1.06h.06l-12.2,1.1.27-.23c-2.84,11.15-5.78,22.26-8.68,33.39h0Zm0,0-1-1h0c2.7-11.18,5.35-22.37,8.11-33.54l0-.21.22,0,12.19-1.23h.06l14.3.94,7.14.49a28.13,28.13,0,0,0,7-.22,59.76,59.76,0,0,0,13.55-4.21,104.26,104.26,0,0,0,12.64-6.55l1.34-.81-.62,1.42a101.06,101.06,0,0,1-5.62,10.84c-1,1.75-2.11,3.48-3.23,5.18L706.61,186,705,188.52a60.15,60.15,0,0,1-7.87,9.36,41.49,41.49,0,0,1-9.9,7.21l0,0a51.86,51.86,0,0,1-10.74,4.31,84.37,84.37,0,0,1-11.33,2.24c-3.82.5-7.66.76-11.5.89S646,212.61,642.13,212.36Z" transform="translate(-3.47 -6.56)"/><path class="cls-6" d="M650.8,177.77s24.28-1.9,35.73-5.47c0,0,18.9-2.14,33-20.43,0,0,14-16.16,20.81-33,0,0-14.22,14.25-31.91,16.87,0,0-46.33,6.46-53.86,2.76Z" transform="translate(-3.47 -6.56)"/><path class="cls-7" d="M650.8,177.77c3-.31,6-.67,9-1s6-.78,9-1.24,6-1,8.89-1.56a85.54,85.54,0,0,0,8.73-2.15h.1a43.3,43.3,0,0,0,9.3-2.69,52.69,52.69,0,0,0,8.64-4.46,56.94,56.94,0,0,0,14.25-13.1,156.64,156.64,0,0,0,11.61-15.79,106.12,106.12,0,0,0,9.11-17.25l1.6,1.06a68.48,68.48,0,0,1-9,7.23,69.42,69.42,0,0,1-10,5.7,52.53,52.53,0,0,1-10.94,3.67c-1,.17-1.9.37-2.85.52l-2.82.37-5.65.69c-7.52.87-15.06,1.67-22.63,2.14-3.79.23-7.58.41-11.39.43-1.9,0-3.81,0-5.72-.17a18,18,0,0,1-5.76-1.13l.82-.46C654.43,145,653.7,151.47,653,158Zm0,0,1.55-19.54c.51-6.57,1-13.19,1.6-19.82l.07-.77.75.31a17.32,17.32,0,0,0,5.34.91c1.87.1,3.75.11,5.63.07,3.76-.09,7.52-.34,11.28-.63q11.29-1,22.54-2.36l5.62-.72,2.81-.38c.91-.15,1.81-.35,2.72-.51a50.42,50.42,0,0,0,10.51-3.61,66.09,66.09,0,0,0,9.68-5.59,73.75,73.75,0,0,0,8.69-7l3.36-3.21-1.76,4.26a107.41,107.41,0,0,1-9.38,17.51A156.92,156.92,0,0,1,720,152.6a57.13,57.13,0,0,1-6.82,7.27,53.47,53.47,0,0,1-8,5.95,52.23,52.23,0,0,1-8.93,4.42,44,44,0,0,1-9.64,2.6l.1,0a76.35,76.35,0,0,1-8.89,2c-3,.52-6,.93-9,1.3Q659.85,177.22,650.8,177.77Z" transform="translate(-3.47 -6.56)"/><path class="cls-8" d="M633.31,181s9.41-51.32,2.72-119.4l-.16-2.85S716.8,51.65,735.13,42c0,0,31.38-17.54,35.43-25.66l1.28-2.14s-1.66,9.63-2.65,14.62c0,0-4.58,18.89-12.26,29.58,0,0-11.15,18.53-36.66,27.09,0,0-32.46,13.9-57.73,14.61l-2.23,23.53s-6.42,48.79-6.92,52.71c0,0-6.95,37.82-11.91,49.94,0,0-5.69,15-8.17,18.18Z" transform="translate(-3.47 -6.56)"/><path class="cls-9" d="M131.9,215.69s-26.76-1.43-34.31-4.28c0,0-7.06-1.78-10.41-4.63,0,0,5.95,10.33,13.75,16.93,0,0,14.49,11,26.26,11.23l11.89.71h1.49s-6.44-18.18-6.94-20.14Z" transform="translate(-3.47 -6.56)"/><path class="cls-10" d="M121.81,138.42S85.4,133.67,70.14,128c0,0-23.24-7.6-32.61-22.33,0,0-13.18-19-17.34-32.79,0,0,15.61,11.88,24.28,15.68,0,0,32.26,13.78,55.15,13.31l20.46-1.9Z" transform="translate(-3.47 -6.56)"/><path class="cls-11" d="M121.81,138.42q-16.19-1.72-32.23-4.66c-5.35-1-10.67-2.15-15.93-3.67a91.59,91.59,0,0,1-15.29-6,69.3,69.3,0,0,1-13.92-8.88,46,46,0,0,1-5.92-5.92c-1.7-2.27-3.24-4.5-4.73-6.79-3-4.57-5.81-9.24-8.38-14.08a90.68,90.68,0,0,1-6.64-15.14L17.38,68.9l3.71,2.76c5.71,4.23,11.54,8.4,17.58,12.08,1.51.93,3,1.78,4.59,2.58.78.38,1.53.77,2.34,1.09l2.46,1c3.31,1.31,6.66,2.53,10,3.7a188,188,0,0,0,20.49,5.94,97.38,97.38,0,0,0,21,2.74h-.07L120,99.14l.83-.07,0,.82c.22,6.52.32,13,.48,19.45Zm0,0L120.54,119c-.42-6.41-.89-12.74-1.25-19.05l.86.75-20.44,2.15h-.07A95.86,95.86,0,0,1,78,100.55a191.52,191.52,0,0,1-20.86-5.76c-3.43-1.13-6.82-2.37-10.18-3.68l-2.52-1c-.86-.34-1.7-.77-2.54-1.17-1.64-.84-3.24-1.72-4.79-2.67A210.27,210.27,0,0,1,19.29,74l2.32-1.61A88.59,88.59,0,0,0,28,87.05c2.52,4.74,5.26,9.39,8.15,13.94,1.43,2.27,3,4.53,4.48,6.62a43.07,43.07,0,0,0,5.5,5.64,70.21,70.21,0,0,0,13.26,8.87,90.06,90.06,0,0,0,14.82,6.23c5.12,1.63,10.4,2.85,15.67,4.05C100.42,134.79,111.11,136.64,121.81,138.42Z" transform="translate(-3.47 -6.56)"/><path class="cls-12" d="M136,212.36s-28.44,1.91-44.92-7.6c0,0-10.53-4.75-19.31-19.25a118.65,118.65,0,0,1-10.34-18.29s18,11.4,31.21,11.16l23.76-1.66,12.2,1.17L137,211.35Z" transform="translate(-3.47 -6.56)"/><path class="cls-13" d="M136,212.36c-3.84.25-7.68.26-11.52.15s-7.69-.39-11.5-.89a84.07,84.07,0,0,1-11.33-2.24,51.94,51.94,0,0,1-10.75-4.31l0,0a41.24,41.24,0,0,1-9.89-7.21,59.6,59.6,0,0,1-7.87-9.36L71.54,186l-1.7-2.53c-1.11-1.7-2.19-3.43-3.22-5.18A101.06,101.06,0,0,1,61,167.41L60.38,166l1.33.81a105.14,105.14,0,0,0,12.65,6.55,59.52,59.52,0,0,0,13.54,4.21,28.16,28.16,0,0,0,7,.22l7.15-.49,14.29-.94h.07l12.19,1.23.21,0,0,.21c2.76,11.17,5.41,22.36,8.11,33.54h0Zm0,0,1-1h0c-2.89-11.13-5.83-22.24-8.67-33.39l.27.23-12.21-1.1h.07l-14.3,1.06-7.16.52a28.75,28.75,0,0,1-7.23-.21A60,60,0,0,1,74,174.24a98.55,98.55,0,0,1-12.79-6.61l.71-.61a99.19,99.19,0,0,0,5.52,10.76q1.55,2.61,3.19,5.15l1.68,2.53L73.93,188a59.32,59.32,0,0,0,7.71,9.25,41.48,41.48,0,0,0,9.61,7.16l0,0a51.78,51.78,0,0,0,10.55,4.36,90.69,90.69,0,0,0,11.23,2.37c3.79.57,7.61.9,11.44,1.11S132.18,212.54,136,212.36Z" transform="translate(-3.47 -6.56)"/><path class="cls-14" d="M127.34,177.77s-24.28-1.9-35.72-5.47c0,0-18.91-2.14-32.95-20.43,0,0-14.05-16.16-20.81-33,0,0,14.22,14.25,31.91,16.87,0,0,46.33,6.46,53.86,2.76Z" transform="translate(-3.47 -6.56)"/><path class="cls-15" d="M127.34,177.77q-9-.57-18-1.68c-3-.37-6-.78-9-1.3a75.74,75.74,0,0,1-8.88-2l.1,0a44.09,44.09,0,0,1-9.65-2.6A55.48,55.48,0,0,1,65,159.87a55.73,55.73,0,0,1-6.82-7.27,158.54,158.54,0,0,1-11.83-15.89A107.41,107.41,0,0,1,37,119.2l-1.75-4.26,3.35,3.21a73.85,73.85,0,0,0,8.7,7,66.52,66.52,0,0,0,9.67,5.59,50.82,50.82,0,0,0,10.51,3.61c.91.16,1.82.36,2.73.51l2.8.38,5.62.72q11.25,1.4,22.54,2.36c3.76.29,7.53.54,11.29.63,1.88,0,3.76,0,5.62-.07a17.32,17.32,0,0,0,5.34-.91l.76-.31.07.77c.58,6.63,1.09,13.25,1.59,19.82Zm0,0L125.17,158c-.73-6.54-1.46-13-2.11-19.49l.82.46a18.06,18.06,0,0,1-5.77,1.13c-1.91.13-3.82.18-5.72.17-3.8,0-7.6-.2-11.38-.43-7.57-.47-15.11-1.27-22.64-2.14L72.73,137l-2.82-.37c-1-.15-1.9-.35-2.86-.52a52.25,52.25,0,0,1-10.93-3.67,71.8,71.8,0,0,1-18.95-12.93l1.6-1.06a105.35,105.35,0,0,0,9.11,17.25,155.12,155.12,0,0,0,11.61,15.79,56.77,56.77,0,0,0,14.25,13.1,52.29,52.29,0,0,0,8.64,4.46,43.14,43.14,0,0,0,9.3,2.69h.1a85.36,85.36,0,0,0,8.72,2.15c3,.6,5.92,1.1,8.9,1.56s6,.87,8.95,1.24S124.34,177.46,127.34,177.77Z" transform="translate(-3.47 -6.56)"/><path class="cls-16" d="M144.84,181s-9.42-51.32-2.73-119.4l.16-2.85S61.35,51.65,43,42c0,0-31.38-17.54-35.43-25.66L6.31,14.22S8,23.85,9,28.84c0,0,4.58,18.89,12.26,29.58,0,0,11.15,18.53,36.67,27.09,0,0,32.45,13.9,57.72,14.61l2.23,23.53s6.43,48.79,6.92,52.71c0,0,7,37.82,11.91,49.94,0,0,5.7,15,8.18,18.18Z" transform="translate(-3.47 -6.56)"/><rect class="cls-17" x="141.42" y="162.35" width="488.15" height="129.03" rx="64.51"/><rect class="cls-18" x="141.42" y="4.63" width="488.15" height="281.29" rx="64.51"/><rect class="cls-19" x="154.88" y="16.82" width="461.23" height="256.92" rx="64.51"/><path class="cls-20" d="M282.86,99.24c.31,0,.62-.21.62-.73V96.33c0-15.78,0-18.69-.2-22-.21-3.53-1-5.19-4.47-5.92a22.06,22.06,0,0,0-4.05-.31c-1.14,0-1.77-.2-1.77-.93s.73-.94,2.19-.94c5.6,0,12.15.31,14.95.31,2.49,0,9-.31,13.09-.31,1.45,0,2.18.21,2.18.94s-.63.93-1.87.93a19.48,19.48,0,0,0-3,.31c-2.8.52-3.63,2.29-3.84,5.92-.21,3.33-.21,6.24-.21,22v18.28c0,9.55,0,17.76.52,22.22.32,2.91.94,5.19,4,5.61a43.41,43.41,0,0,0,5.3.42c1.14,0,1.66.31,1.66.83,0,.72-.83,1-2.07,1-6.76,0-13.3-.31-16.21-.31-2.38,0-8.93.31-13,.31-1.45,0-2.18-.31-2.18-1,0-.52.42-.83,1.66-.83a16.73,16.73,0,0,0,3.74-.42c2.08-.42,2.6-2.7,3-5.71.52-4.36.52-12.57.52-22.12v-9.14a.59.59,0,0,0-.62-.62H243.19a.54.54,0,0,0-.62.62v9.14c0,9.55,0,17.76.52,22.22.31,2.91.93,5.19,4,5.61a43.08,43.08,0,0,0,5.29.42c1.14,0,1.66.31,1.66.83,0,.72-.83,1-2.07,1-6.75,0-13.3-.31-16.2-.31-2.39,0-8.94.31-13.09.31-1.35,0-2.08-.31-2.08-1,0-.52.42-.83,1.67-.83a16.71,16.71,0,0,0,3.73-.42c2.08-.42,2.6-2.7,3-5.71.51-4.36.51-12.57.51-22.12V96.33c0-15.78,0-18.69-.2-22-.21-3.53-1-5.19-4.47-5.92a22,22,0,0,0-4-.31c-1.14,0-1.76-.2-1.76-.93s.72-.94,2.18-.94c5.6,0,12.15.31,14.95.31,2.49,0,9-.31,13.09-.31,1.45,0,2.18.21,2.18.94s-.63.93-1.87.93a19.26,19.26,0,0,0-3,.31c-2.81.52-3.64,2.29-3.85,5.92-.2,3.33-.2,6.24-.2,22v2.18c0,.52.31.73.62.73Z" transform="translate(-3.47 -6.56)"/><path class="cls-21" d="M330.53,96.33c0-15.78,0-18.69-.21-22-.21-3.53-1.25-5.29-3.53-5.81a14.9,14.9,0,0,0-3.74-.42c-1,0-1.66-.2-1.66-1,0-.62.83-.83,2.49-.83,3.95,0,10.49.31,13.5.31,2.6,0,8.72-.31,12.67-.31,1.35,0,2.18.21,2.18.83,0,.84-.62,1-1.66,1a18.36,18.36,0,0,0-3.12.31c-2.8.52-3.63,2.29-3.84,5.92-.21,3.33-.21,6.24-.21,22v18.28c0,10.07,0,18.28.42,22.74.31,2.81,1,4.67,4.15,5.09a43.41,43.41,0,0,0,5.3.42c1.14,0,1.66.31,1.66.83,0,.72-.83,1-2,1-6.86,0-13.4-.31-16.2-.31-2.39,0-8.93.31-13.09.31-1.35,0-2.08-.31-2.08-1,0-.52.42-.83,1.67-.83a16.71,16.71,0,0,0,3.73-.42c2.08-.42,2.7-2.18,3-5.19.52-4.36.52-12.57.52-22.64Z" transform="translate(-3.47 -6.56)"/><path class="cls-22" d="M439.47,137.77c0,2.8-.11,3-1.35,3.74-6.76,3.53-16.93,4.67-25,4.67-25.45,0-48-12.05-48-40.71,0-16.62,8.62-28.25,18.07-34,10-6,19.21-6.75,27.93-6.75a125.94,125.94,0,0,1,18.39,1.66,66.11,66.11,0,0,0,8.2,1.14c1.25.11,1.45.52,1.45,1.25a141.34,141.34,0,0,0-.72,17c0,1.66-.31,2.18-1.15,2.18s-.93-.52-1-1.35a14.63,14.63,0,0,0-3.53-8.62c-3.12-3.32-11.43-8.1-23.16-8.1-5.72,0-13.3.42-20.57,6.44-5.81,4.88-9.55,12.67-9.55,25.44,0,22.33,14.23,39.05,36.14,39.05,2.7,0,6.33,0,8.83-1.14,1.55-.73,2-2.08,2-3.84v-9.76c0-5.2,0-9.14-.1-12.26-.11-3.53-1-5.19-4.47-5.92a21.21,21.21,0,0,0-4.05-.31c-.93,0-1.56-.21-1.56-.83,0-.83.73-1,2.18-1,5.4,0,11.95.31,15.06.31s8.73-.31,12.15-.31c1.35,0,2.08.21,2.08,1,0,.62-.62.83-1.35.83a16,16,0,0,0-2.8.31c-2.81.52-3.85,2.29-3.95,5.92-.1,3.12-.1,7.27-.1,12.46Z" transform="translate(-3.47 -6.56)"/><path class="cls-23" d="M521.71,99.24c.32,0,.63-.21.63-.73V96.33c0-15.78,0-18.69-.21-22-.21-3.53-1-5.19-4.47-5.92a22,22,0,0,0-4-.31c-1.14,0-1.76-.2-1.76-.93s.72-.94,2.18-.94c5.61,0,12.15.31,15,.31,2.5,0,9-.31,13.09-.31,1.45,0,2.18.21,2.18.94s-.62.93-1.87.93a19.26,19.26,0,0,0-3,.31c-2.81.52-3.64,2.29-3.84,5.92-.21,3.33-.21,6.24-.21,22v18.28c0,9.55,0,17.76.52,22.22.31,2.91.93,5.19,4,5.61a43.24,43.24,0,0,0,5.29.42c1.15,0,1.67.31,1.67.83,0,.72-.84,1-2.08,1-6.75,0-13.29-.31-16.2-.31-2.39,0-8.93.31-13,.31-1.46,0-2.18-.31-2.18-1,0-.52.41-.83,1.66-.83a16.88,16.88,0,0,0,3.74-.42c2.07-.42,2.59-2.7,3-5.71.52-4.36.52-12.57.52-22.12v-9.14a.59.59,0,0,0-.63-.62H482a.54.54,0,0,0-.62.62v9.14c0,9.55,0,17.76.52,22.22.31,2.91.93,5.19,4.05,5.61a43.24,43.24,0,0,0,5.29.42c1.15,0,1.67.31,1.67.83,0,.72-.83,1-2.08,1-6.75,0-13.29-.31-16.2-.31-2.39,0-8.93.31-13.09.31-1.35,0-2.07-.31-2.07-1,0-.52.41-.83,1.66-.83a16.81,16.81,0,0,0,3.74-.42c2.07-.42,2.59-2.7,3-5.71.52-4.36.52-12.57.52-22.12V96.33c0-15.78,0-18.69-.21-22-.21-3.53-1-5.19-4.47-5.92a22,22,0,0,0-4.05-.31c-1.14,0-1.76-.2-1.76-.93s.73-.94,2.18-.94c5.61,0,12.15.31,14.95.31,2.5,0,9-.31,13.09-.31,1.45,0,2.18.21,2.18.94s-.62.93-1.87.93a19.37,19.37,0,0,0-3,.31c-2.81.52-3.64,2.29-3.84,5.92-.21,3.33-.21,6.24-.21,22v2.18c0,.52.31.73.62.73Z" transform="translate(-3.47 -6.56)"/><path class="cls-24" d="M241.13,210.47c0,10.05,0,17.9.52,22.3.31,3,.94,5.34,4.08,5.76A44,44,0,0,0,251,239c1.36,0,1.78.31,1.78.84,0,.73-.73,1-2.3,1-6.6,0-13.2-.31-15.92-.31s-9.32.31-13.3.31c-1.46,0-2.2-.21-2.2-1,0-.53.42-.84,1.57-.84a17,17,0,0,0,3.77-.42c2.1-.42,2.62-2.72,3-5.76.52-4.4.52-12.25.52-22.3V192c0-15.91,0-18.85-.21-22.2-.21-3.56-1-5.23-4.5-6a21.44,21.44,0,0,0-4.08-.32c-1,0-1.78-.21-1.78-.84,0-.83.84-1,2.41-1,2.72,0,5.76.1,8.48.1s5.13.21,6.59.21c4,0,25.24,0,27.65-.1a20.83,20.83,0,0,0,4.29-.42c.63-.21,1.15-.63,1.67-.63a.85.85,0,0,1,.74.94c0,.73-.53,2-.84,4.71-.1,1-.31,7.23-.52,8.48-.11.84-.32,1.47-1.05,1.47s-.94-.52-1-1.68a10.2,10.2,0,0,0-.63-4c-.73-1.47-2.93-3-6.91-3.15l-16.12-.31c-.63,0-.94.31-.94,1.47V195c0,.63.1.95.73.95l13.4-.11c1.78,0,3.25,0,4.71-.1,2-.11,3.46-.53,4.51-1.89.52-.63.73-1,1.36-1,.42,0,.63.32.63.95s-.53,3.24-.84,6.49c-.21,2.09-.42,6.91-.42,7.64,0,.94,0,2-1,2-.63,0-.84-.73-.84-1.46a11.8,11.8,0,0,0-.62-3.25c-.53-1.47-2.1-3.35-5.34-3.77-2.62-.31-13.72-.31-15.5-.31-.52,0-.73.21-.73.94Z" transform="translate(-3.47 -6.56)"/><path class="cls-25" d="M306.15,210.47c0,13.4,0,20.63,2.2,22.51,1.78,1.57,4.5,2.3,12.67,2.3,5.55,0,9.63-.1,12.25-2.93a13.18,13.18,0,0,0,2.72-6.28c.1-.94.31-1.57,1.15-1.57s.84.52.84,1.78a82.36,82.36,0,0,1-1.57,12c-.63,2.3-1.15,2.83-6.6,2.83-7.54,0-13-.21-17.69-.32s-8.48-.31-12.78-.31c-1.15,0-3.45,0-6,.1s-5.13.21-7.22.21c-1.36,0-2.09-.31-2.09-1,0-.53.41-.84,1.67-.84a17,17,0,0,0,3.77-.42c2.09-.42,2.62-2.72,3-5.76.52-4.4.52-12.67.52-22.3V192c0-15.91,0-18.85-.21-22.2-.21-3.56-1.05-5.23-4.5-6a15.53,15.53,0,0,0-3.46-.32c-1.15,0-1.78-.21-1.78-.94s.74-.94,2.31-.94c4.92,0,11.51.31,14.34.31,2.51,0,10.16-.31,14.24-.31,1.47,0,2.2.21,2.2.94s-.63.94-1.88.94a27.86,27.86,0,0,0-4.09.32c-2.82.52-3.66,2.3-3.87,6-.21,3.35-.21,6.29-.21,22.2Z" transform="translate(-3.47 -6.56)"/><path class="cls-26" d="M364,213.72a22.23,22.23,0,0,0-2.41-11c-.74-1.67-14.77-24.71-18.43-30.15-2.62-3.88-5.24-6.5-7.22-7.65a10.77,10.77,0,0,0-4.4-1.36c-.84,0-1.57-.21-1.57-.94s.73-.94,2-.94c1.88,0,9.73.31,13.19.31,2.2,0,6.49-.31,11.2-.31,1.05,0,1.57.31,1.57.94s-.73.73-2.3,1.15a1.9,1.9,0,0,0-1.47,1.89,9.83,9.83,0,0,0,1.26,3.56c1.47,3.14,16.13,28.37,17.8,31.3,1-2.51,14.24-25.55,15.71-28.79a13.79,13.79,0,0,0,1.46-5.45,2.49,2.49,0,0,0-2.2-2.61c-.94-.21-1.88-.42-1.88-1s.52-.94,1.78-.94c3.45,0,6.8.31,9.84.31,2.31,0,9.22-.31,11.2-.31,1.16,0,1.89.21,1.89.83s-.84,1.05-2,1.05a11.29,11.29,0,0,0-4.61,1.26c-2.2,1-3.35,2.3-5.65,5.13-3.46,4.19-18.12,28.79-20,33.29-1.57,3.77-1.57,7-1.57,10.48v8.58c0,1.68,0,6.07.31,10.47.21,3,1.15,5.34,4.3,5.76A43.88,43.88,0,0,0,387,239c1.15,0,1.68.31,1.68.84,0,.73-.84,1-2.2,1-6.6,0-13.2-.31-16-.31-2.62,0-9.22.31-13.09.31-1.47,0-2.3-.21-2.3-1,0-.53.52-.84,1.67-.84a16.87,16.87,0,0,0,3.67-.42c2.09-.42,3-2.72,3.24-5.76.32-4.4.32-8.79.32-10.47Z" transform="translate(-3.47 -6.56)"/><path class="cls-27" d="M422.37,192c0-15.91,0-18.85-.21-22.2-.21-3.56-1-5.23-4.5-6a21.44,21.44,0,0,0-4.08-.32c-1.15,0-1.78-.21-1.78-.94s.73-.94,2.3-.94c2.83,0,5.86.1,8.48.1s5.13.21,6.6.21c3.35,0,24.19,0,26.17-.1a42,42,0,0,0,4.51-.63,9.28,9.28,0,0,1,1.67-.42c.53,0,.63.42.63.94a68.56,68.56,0,0,0-.84,6.81c-.1,1-.31,5.65-.52,6.91-.11.52-.31,1.15-1.05,1.15s-.94-.52-.94-1.47a11.11,11.11,0,0,0-.63-3.77c-.73-1.88-1.78-3.14-7-3.77-1.78-.2-12.78-.41-14.87-.41-.53,0-.74.31-.74,1v26.49c0,.74.11,1.16.74,1.16,2.3,0,14.34,0,16.75-.21s4.08-.53,5-1.57c.73-.84,1.15-1.37,1.67-1.37s.74.21.74.84-.42,2.31-.84,7.65c-.11,2.09-.42,6.28-.42,7s0,2-.94,2a.83.83,0,0,1-1-.94,27.27,27.27,0,0,0-.41-3.77c-.53-2.1-2-3.67-5.87-4.09-2-.2-12.35-.31-14.87-.31-.52,0-.63.42-.63,1v8.27c0,3.56-.1,13.19,0,16.23.21,7.22,1.89,8.79,12.57,8.79,2.72,0,7.12,0,9.84-1.25s4-3.46,4.71-7.75c.21-1.15.42-1.57,1.16-1.57s.83.84.83,1.88a81.35,81.35,0,0,1-1.36,11.63c-.73,2.72-1.67,2.72-5.65,2.72-7.86,0-13.61-.21-18.12-.32s-7.74-.31-10.89-.31c-1.15,0-3.45,0-6,.1s-5.13.21-7.23.21c-1.36,0-2.09-.31-2.09-1,0-.53.42-.84,1.67-.84a17,17,0,0,0,3.77-.42c2.1-.42,2.62-2.72,3-5.76.52-4.4.52-12.67.52-22.3Z" transform="translate(-3.47 -6.56)"/><path class="cls-28" d="M488.55,192c0-15.91,0-18.85-.21-22.2-.21-3.56-1-5.23-4.51-6a21.29,21.29,0,0,0-4.08-.32c-1.15,0-1.78-.21-1.78-.94s.73-.94,2.3-.94c5.55,0,12.15.31,14.35.31,3.56,0,11.52-.31,14.76-.31,6.6,0,13.61.62,19.27,4.5a18.15,18.15,0,0,1,7.12,14.34c0,7.75-3.25,14.87-13.82,23.46,9.31,11.72,16.54,21,22.72,27.53,5.86,6.08,10.15,6.81,11.72,7.13a17.52,17.52,0,0,0,2.94.31c.83,0,1.25.31,1.25.84,0,.83-.73,1-2,1h-9.94c-5.87,0-8.48-.52-11.21-2-4.5-2.4-8.48-7.33-14.34-15.39-4.19-5.76-9-12.88-10.37-14.45a2.2,2.2,0,0,0-1.88-.73l-9.11-.21c-.53,0-.84.21-.84.84v1.46c0,9.74,0,18,.52,22.41.32,3,.95,5.34,4.09,5.76a47.92,47.92,0,0,0,5.13.42c.84,0,1.25.31,1.25.84,0,.73-.73,1-2.09,1-6.07,0-13.82-.31-15.39-.31-2,0-8.59.31-12.78.31-1.36,0-2.09-.31-2.09-1,0-.53.42-.84,1.68-.84a16.93,16.93,0,0,0,3.76-.42c2.1-.42,2.62-2.72,3-5.76.53-4.4.53-12.67.53-22.3Zm12.35,8.27c0,1.15.21,1.57.94,1.89a27.72,27.72,0,0,0,8,1c4.19,0,5.55-.41,7.43-1.78,3.15-2.3,6.18-7.12,6.18-15.7,0-14.87-9.84-19.16-16-19.16a22.67,22.67,0,0,0-5.55.42c-.73.21-.94.62-.94,1.46Z" transform="translate(-3.47 -6.56)"/></svg>